<svg xmlns="http://www.w3.org/2000/svg" xmlns:xlink="http://www.w3.org/1999/xlink" width="83" height="87" viewBox="0 0 83 87"><defs><path id="ebkka" d="M996.98 2437.01v12.27c0 1.12-.9 2.02-2.02 2.02h-11.93c-1.12 0-2.02-.9-2.02-2.02v-4.17h-22.05c.22 4.84 12.26 28.24 19.91 41.97.45.79.22 1.91-.45 2.47-6.86 5.85-8.55 11.6-9 14.52h2.59c1.12 0 2.02.9 2.02 2.02v9.9c0 1.13-.9 2.03-2.02 2.03h-29.93c-1.12 0-2.02-.9-2.02-2.03v-9.9c0-1.12.9-2.02 2.02-2.02h2.6c-.46-2.93-2.15-8.67-9-14.52-.68-.67-.9-1.68-.46-2.47 7.65-13.73 19.69-37.02 19.91-41.97h-22.16v4.17c0 1.12-.9 2.02-2.02 2.02h-11.93c-1.12 0-2.02-.9-2.02-2.02V2437c0-1.12.9-2.02 2.02-2.02h11.82c1.12 0 2.02.9 2.02 2.02v4.17h48.15V2437c0-1.12.9-2.02 2.02-2.02h11.93c1.12 0 2.02.9 2.02 2.02zm-68.06 1.92h-7.98v8.32h7.98zm25.54 43.87a2.55 2.55 0 0 0 2.59 2.6 2.55 2.55 0 0 0 2.58-2.6 2.55 2.55 0 0 0-2.58-2.58 2.7 2.7 0 0 0-2.6 2.58zm15.64 25.1H944.1v5.96h25.99zm4.6-20.37c-2.7-5.06-10.68-19.91-15.63-30.94v20.03c2.59.9 4.5 3.26 4.5 6.18a6.53 6.53 0 1 1-8.55-6.18v-19.92c-4.84 11.03-12.94 25.88-15.63 30.83 7.08 6.64 8.77 13.16 9.22 16.42h16.87c.45-3.26 2.14-9.78 9.23-16.42zm18.34-48.5h-7.98V2447.26h7.98z"/></defs><g><g transform="translate(-915 -2433)"><use fill="#3c3c3c" xlink:href="#ebkka"/></g></g></svg>