<svg xmlns="http://www.w3.org/2000/svg" xmlns:xlink="http://www.w3.org/1999/xlink" width="82" height="94" viewBox="0 0 82 94"><defs><path id="bj7la" d="M939.76 3177.11c-.4 0-.8-.15-1.11-.45l-3.1-3.08c-.61-.6-.61-1.6 0-2.2.61-.61 1.6-.61 2.22 0l1.99 1.97 5.08-5.05c.62-.61 1.6-.61 2.22 0 .61.6.61 1.6 0 2.2l-6.2 6.16c-.3.3-.7.45-1.1.45zm32.55-3.07h-18.67c-.87 0-1.57-.7-1.57-1.56 0-.86.7-1.56 1.57-1.56h18.67c.87 0 1.57.7 1.57 1.56 0 .86-.7 1.56-1.57 1.56zm-32.55 29.75c-.4 0-.8-.15-1.11-.45l-3.1-3.08c-.61-.6-.61-1.6 0-2.2.61-.61 1.6-.61 2.22 0l1.99 1.97 5.08-5.05c.62-.61 1.6-.61 2.22 0 .61.6.61 1.6 0 2.2l-6.2 6.16c-.3.3-.7.45-1.1.45zm32.55-3.07h-18.67c-.87 0-1.57-.7-1.57-1.56 0-.86.7-1.56 1.57-1.56h18.67c.87 0 1.57.7 1.57 1.56 0 .86-.7 1.56-1.57 1.56zm-32.55 16.42c-.4 0-.8-.16-1.11-.46l-3.1-3.08c-.61-.6-.61-1.6 0-2.2.61-.61 1.6-.61 2.22 0l1.99 1.97 5.08-5.05c.62-.6 1.6-.6 2.22 0 .62.61.61 1.6 0 2.2l-6.2 6.16c-.3.3-.7.46-1.1.46zm32.55-3.08h-18.67c-.87 0-1.57-.7-1.57-1.56 0-.86.7-1.56 1.57-1.56h18.67c.87 0 1.57.7 1.57 1.56 0 .86-.7 1.56-1.57 1.56zm-32.55-23.6c-.4 0-.8-.16-1.11-.46l-3.1-3.08c-.61-.6-.61-1.6 0-2.2.61-.61 1.6-.61 2.22 0l1.99 1.97 5.08-5.05c.62-.61 1.6-.61 2.22 0 .62.6.61 1.6 0 2.2l-6.2 6.16c-.3.3-.7.45-1.1.45zm32.55-3.08h-18.67c-.87 0-1.57-.7-1.57-1.56 0-.86.7-1.56 1.57-1.56h18.67c.87 0 1.57.7 1.57 1.56 0 .86-.7 1.56-1.57 1.56zm24.67-34.9v75.44c0 1.15-.93 2.08-2.1 2.08h-74.8c-1.16 0-2.1-.93-2.1-2.08v-75.44c0-1.14.94-2.08 2.1-2.08h20.47a6.13 6.13 0 0 1 6.13-5.68h6a5.8 5.8 0 1 1 11.62 0h5.98c3.25 0 5.92 2.5 6.14 5.68h18.47c1.16 0 2.1.94 2.1 2.08zm-52.27-1.64v4.26h27.55v-4.26c0-1.08-.88-1.96-1.98-1.96h-6.54c-2 0-3.63-1.62-3.63-3.6v-.49a1.63 1.63 0 0 0-3.25 0v.48c0 1.99-1.63 3.6-3.64 3.6h-6.54c-1.09 0-1.97.9-1.97 1.97zm48.08 75v-71.28h-16.35v2.62c0 1.15-.93 2.08-2.1 2.08h-31.72c-1.16 0-2.1-.93-2.1-2.08v-2.62h-18.35v71.28zm-34.3-76.7a2 2 0 0 1 2 2 2 2 0 0 1-2 2 2 2 0 0 1-2.02-2c0-1.1.9-2 2.01-2z"/></defs><g><g transform="translate(-916 -3138)"><use fill="#3c3c3c" xlink:href="#bj7la"/></g></g></svg>